<svg xmlns="http://www.w3.org/2000/svg" version="1.1" xmlns:xlink="http://www.w3.org/1999/xlink" xmlns:svgjs="http://svgjs.dev/svgjs" width="1500" height="1500" viewBox="0 0 1500 1500"><rect width="1500" height="1500" fill="#ffffff"></rect><g transform="matrix(0.6666666666666666,0,0,0.6666666666666666,249.39393939393938,670.3910557237859)"><svg viewBox="0 0 396 63" data-background-color="#ffffff" preserveAspectRatio="xMidYMid meet" height="238" width="1500" xmlns="http://www.w3.org/2000/svg" xmlns:xlink="http://www.w3.org/1999/xlink"><g id="tight-bounds" transform="matrix(1,0,0,1,0.2400000000000091,0.10943375673201672)"><svg viewBox="0 0 395.52 62.78113248653595" height="62.78113248653595" width="395.52"><g><svg viewBox="0 0 520.1494499542529 82.56364161199625" height="62.78113248653595" width="395.52"><g><rect width="7.408631249997976" height="82.56364161199625" x="97.82649606028116" y="0" fill="#111111" opacity="1" stroke-width="0" stroke="transparent" fill-opacity="1" class="rect-yte-0" data-fill-palette-color="primary" rx="1%" id="yte-0" data-palette-color="#111111"></rect></g><g transform="matrix(1,0,0,1,124.62944995425289,0.20538219306466488)"><svg viewBox="0 0 395.52 82.15287722586692" height="82.15287722586692" width="395.52"><g id="textblocktransform"><svg viewBox="0 0 395.52 82.15287722586692" height="82.15287722586692" width="395.52" id="textblock"><g><svg viewBox="0 0 395.52 82.15287722586692" height="82.15287722586692" width="395.52"><g transform="matrix(1,0,0,1,0,0)"><svg width="395.52" viewBox="-0.24 -33.28 208.38 43.29" height="82.15287722586692" data-palette-color="#111111"><path d="M28.69-28.98Q29.52-28.98 29.87-28.6 30.22-28.22 30.22-27.32L30.22-27.32Q30.22-26.42 29.87-26.04 29.52-25.66 28.69-25.66L28.69-25.66 27.37-25.66 24-1.05Q23.88-0.17 23.38 0.18 22.88 0.54 21.9 0.54L21.9 0.54Q19.9 0.54 19.41-1.05L19.41-1.05 14.89-15.23 10.33-1.05Q9.81 0.54 7.79 0.54L7.79 0.54Q6.84 0.54 6.34 0.17 5.83-0.2 5.74-1.05L5.74-1.05 2.49-25.66 1.29-25.66Q0.46-25.66 0.11-26.04-0.24-26.42-0.24-27.32L-0.24-27.32Q-0.24-28.22 0.11-28.6 0.46-28.98 1.29-28.98L1.29-28.98 9.69-28.98Q10.52-28.98 10.88-28.6 11.23-28.22 11.23-27.32L11.23-27.32Q11.23-26.42 10.88-26.04 10.52-25.66 9.69-25.66L9.69-25.66 6.13-25.66 8.57-6.1 13.16-20.46Q13.5-21.61 14.92-21.61L14.92-21.61Q15.7-21.61 16.13-21.36 16.55-21.12 16.7-20.63L16.7-20.63 21.26-6.1 23.8-25.66 20.78-25.66Q19.95-25.66 19.59-26.04 19.24-26.42 19.24-27.32L19.24-27.32Q19.24-28.22 19.59-28.6 19.95-28.98 20.78-28.98L20.78-28.98 28.69-28.98ZM45.85-22.56Q46.68-22.56 47.03-22.18 47.39-21.8 47.39-20.9L47.39-20.9 47.39-3.32 55.22-3.32Q56.05-3.32 56.41-2.94 56.76-2.56 56.76-1.66L56.76-1.66Q56.76-0.76 56.41-0.38 56.05 0 55.22 0L55.22 0 36.08 0Q35.25 0 34.9-0.38 34.54-0.76 34.54-1.66L34.54-1.66Q34.54-2.56 34.9-2.94 35.25-3.32 36.08-3.32L36.08-3.32 43.72-3.32 43.72-19.24 37.55-19.24Q36.72-19.24 36.36-19.62 36.01-20 36.01-20.9L36.01-20.9Q36.01-21.8 36.36-22.18 36.72-22.56 37.55-22.56L37.55-22.56 45.85-22.56ZM45.07-33.28Q46.41-33.28 46.9-32.92 47.39-32.57 47.39-31.69L47.39-31.69 47.39-28.52Q47.39-27.64 46.9-27.28 46.41-26.93 45.07-26.93L45.07-26.93Q43.72-26.93 43.23-27.28 42.75-27.64 42.75-28.52L42.75-28.52 42.75-31.69Q42.75-32.57 43.23-32.92 43.72-33.28 45.07-33.28L45.07-33.28ZM83.47-32.03Q84.3-32.03 84.65-31.65 85-31.27 85-30.37L85-30.37 85-3.32 87.01-3.32Q87.84-3.32 88.19-2.94 88.54-2.56 88.54-1.66L88.54-1.66Q88.54-0.76 88.19-0.38 87.84 0 87.01 0L87.01 0 83.12 0Q82.29 0 81.94-0.38 81.59-0.76 81.59-1.66L81.59-1.66 81.59-3.61Q80.05-1.61 78.02-0.54 76 0.54 73.6 0.54L73.6 0.54Q70.58 0.54 68.18-0.89 65.79-2.32 64.42-4.99 63.06-7.67 63.06-11.28L63.06-11.28Q63.06-14.89 64.42-17.57 65.79-20.24 68.18-21.67 70.58-23.1 73.6-23.1L73.6-23.1Q78.19-23.1 81.34-19.07L81.34-19.07 81.34-28.71 77.39-28.71Q76.56-28.71 76.2-29.09 75.85-29.47 75.85-30.37L75.85-30.37Q75.85-31.27 76.2-31.65 76.56-32.03 77.39-32.03L77.39-32.03 83.47-32.03ZM73.85-19.48Q71.67-19.48 70.11-18.44 68.55-17.41 67.73-15.55 66.91-13.7 66.91-11.28L66.91-11.28Q66.91-8.86 67.73-7.01 68.55-5.15 70.11-4.11 71.67-3.08 73.85-3.08L73.85-3.08Q76.02-3.08 77.72-4.05 79.41-5.03 80.38-6.88 81.34-8.74 81.34-11.28L81.34-11.28Q81.34-13.82 80.38-15.67 79.41-17.53 77.72-18.51 76.02-19.48 73.85-19.48L73.85-19.48ZM110.44-22.56Q111.27-22.56 111.63-22.18 111.98-21.8 111.98-20.9L111.98-20.9 111.98 1.39Q111.98 5.69 110.06 7.85 108.15 10.01 104 10.01L104 10.01Q101.97 10.01 99.63 9.24 97.28 8.47 95.38 7.28L95.38 7.28Q94.57 6.79 94.57 6.01L94.57 6.01Q94.57 5.54 94.89 4.91L94.89 4.91Q95.48 3.78 96.31 3.78L96.31 3.78Q96.72 3.78 97.06 4.03L97.06 4.03Q98.75 5.13 100.55 5.79 102.36 6.45 104 6.45L104 6.45Q106.39 6.45 107.35 5.15 108.32 3.86 108.32 1.07L108.32 1.07 108.32-19.24 97.99-19.24Q97.16-19.24 96.81-19.62 96.45-20 96.45-20.9L96.45-20.9Q96.45-21.8 96.81-22.18 97.16-22.56 97.99-22.56L97.99-22.56 110.44-22.56ZM109.66-33.28Q111-33.28 111.49-32.92 111.98-32.57 111.98-31.69L111.98-31.69 111.98-28.52Q111.98-27.64 111.49-27.28 111-26.93 109.66-26.93L109.66-26.93Q108.32-26.93 107.83-27.28 107.34-27.64 107.34-28.52L107.34-28.52 107.34-31.69Q107.34-32.57 107.83-32.92 108.32-33.28 109.66-33.28L109.66-33.28ZM135-23.1Q139.59-23.1 141.88-21.04 144.18-18.99 144.18-14.97L144.18-14.97 144.18-5.25Q144.18-3.32 145.79-3.32L145.79-3.32 146.65-3.32Q147.48-3.32 147.83-2.94 148.18-2.56 148.18-1.66L148.18-1.66Q148.18-0.76 147.83-0.38 147.48 0 146.65 0L146.65 0 145.08 0Q143.5 0 142.36-0.79 141.23-1.59 140.88-3.13L140.88-3.13Q138.88-1.37 136.55-0.42 134.22 0.54 131.61 0.54L131.61 0.54Q129.14 0.54 127.25-0.31 125.36-1.15 124.28-2.76 123.21-4.37 123.21-6.59L123.21-6.59Q123.21-10.45 125.97-12.29 128.73-14.14 133.1-14.14L133.1-14.14Q136.98-14.14 140.52-12.89L140.52-12.89 140.52-14.97Q140.52-17.33 139.19-18.44 137.86-19.56 134.9-19.56L134.9-19.56Q133.07-19.56 131.09-19.04 129.12-18.53 127.33-17.63L127.33-17.63Q126.92-17.41 126.58-17.41L126.58-17.41Q125.77-17.41 125.23-18.58L125.23-18.58Q124.97-19.17 124.97-19.56L124.97-19.56Q124.97-20.41 125.87-20.87L125.87-20.87Q127.92-21.95 130.28-22.52 132.63-23.1 135-23.1L135-23.1ZM133.12-10.69Q130.31-10.69 128.69-9.73 127.07-8.76 127.07-6.67L127.07-6.67Q127.07-4.88 128.3-3.89 129.53-2.91 131.75-2.91L131.75-2.91Q136.61-2.91 140.52-6.93L140.52-6.93 140.52-9.59Q138.86-10.13 136.95-10.41 135.05-10.69 133.12-10.69L133.12-10.69ZM170.4-22.56Q171.23-22.56 171.58-22.18 171.94-21.8 171.94-20.9L171.94-20.9 171.94 1.39Q171.94 5.69 170.02 7.85 168.1 10.01 163.95 10.01L163.95 10.01Q161.93 10.01 159.58 9.24 157.24 8.47 155.33 7.28L155.33 7.28Q154.53 6.79 154.53 6.01L154.53 6.01Q154.53 5.54 154.85 4.91L154.85 4.91Q155.43 3.78 156.26 3.78L156.26 3.78Q156.68 3.78 157.02 4.03L157.02 4.03Q158.7 5.13 160.51 5.79 162.32 6.45 163.95 6.45L163.95 6.45Q166.34 6.45 167.31 5.15 168.27 3.86 168.27 1.07L168.27 1.07 168.27-19.24 157.95-19.24Q157.12-19.24 156.76-19.62 156.41-20 156.41-20.9L156.41-20.9Q156.41-21.8 156.76-22.18 157.12-22.56 157.95-22.56L157.95-22.56 170.4-22.56ZM169.62-33.28Q170.96-33.28 171.45-32.92 171.94-32.57 171.94-31.69L171.94-31.69 171.94-28.52Q171.94-27.64 171.45-27.28 170.96-26.93 169.62-26.93L169.62-26.93Q168.27-26.93 167.79-27.28 167.3-27.64 167.3-28.52L167.3-28.52 167.3-31.69Q167.3-32.57 167.79-32.92 168.27-33.28 169.62-33.28L169.62-33.28ZM194.96-23.1Q199.55-23.1 201.84-21.04 204.14-18.99 204.14-14.97L204.14-14.97 204.14-5.25Q204.14-3.32 205.75-3.32L205.75-3.32 206.6-3.32Q207.43-3.32 207.79-2.94 208.14-2.56 208.14-1.66L208.14-1.66Q208.14-0.76 207.79-0.38 207.43 0 206.6 0L206.6 0 205.04 0Q203.45 0 202.32-0.79 201.18-1.59 200.84-3.13L200.84-3.13Q198.84-1.37 196.51-0.42 194.17 0.54 191.56 0.54L191.56 0.54Q189.1 0.54 187.2-0.31 185.31-1.15 184.24-2.76 183.16-4.37 183.16-6.59L183.16-6.59Q183.16-10.45 185.92-12.29 188.68-14.14 193.05-14.14L193.05-14.14Q196.93-14.14 200.47-12.89L200.47-12.89 200.47-14.97Q200.47-17.33 199.14-18.44 197.81-19.56 194.86-19.56L194.86-19.56Q193.03-19.56 191.05-19.04 189.07-18.53 187.29-17.63L187.29-17.63Q186.87-17.41 186.53-17.41L186.53-17.41Q185.73-17.41 185.19-18.58L185.19-18.58Q184.92-19.17 184.92-19.56L184.92-19.56Q184.92-20.41 185.82-20.87L185.82-20.87Q187.88-21.95 190.23-22.52 192.59-23.1 194.96-23.1L194.96-23.1ZM193.08-10.69Q190.27-10.69 188.64-9.73 187.02-8.76 187.02-6.67L187.02-6.67Q187.02-4.88 188.25-3.89 189.49-2.91 191.71-2.91L191.71-2.91Q196.57-2.91 200.47-6.93L200.47-6.93 200.47-9.59Q198.81-10.13 196.91-10.41 195-10.69 193.08-10.69L193.08-10.69Z" opacity="1" transform="matrix(1,0,0,1,0,0)" fill="#111111" class="wordmark-text-0" data-fill-palette-color="primary" id="text-0"></path></svg></g></svg></g></svg></g></svg></g><g transform="matrix(1,0,0,1,0,0.20538219306466488)"><svg viewBox="0 0 78.4321734163074 82.15287722586692" height="82.15287722586692" width="78.4321734163074"><g><svg version="1.0" xmlns="http://www.w3.org/2000/svg" xmlns:xlink="http://www.w3.org/1999/xlink" x="0" y="0" viewBox="0 0 95.471 100" enable-background="new 0 0 95.471 100" xml:space="preserve" id="icon-0" width="78.4321734163074" height="82.15287722586692" class="icon-icon-0" data-fill-palette-color="accent"><path d="M47.735 0C47.652 2.825 45.997 13.412 27.936 30.934 10.554 47.797 2.439 49.824 0 50 2.439 50.178 10.554 52.204 27.936 69.066 45.997 86.589 47.652 97.177 47.735 100 47.818 97.177 49.474 86.589 67.533 69.066 84.917 52.204 93.031 50.178 95.471 50 93.032 49.824 84.917 47.797 67.533 30.934 49.475 13.412 47.819 2.825 47.735 0" fill="#111111" data-fill-palette-color="accent"></path></svg></g></svg></g></svg></g><defs></defs></svg><rect width="395.52" height="62.78113248653595" fill="none" stroke="none" visibility="hidden"></rect></g></svg></g></svg>