<svg xmlns="http://www.w3.org/2000/svg" version="1.1" xmlns:xlink="http://www.w3.org/1999/xlink" xmlns:svgjs="http://svgjs.dev/svgjs" width="2000" height="1252" viewBox="0 0 2000 1252"><g transform="matrix(1,0,0,1,-1.2121212121212466,-2.01935483870966)"><svg viewBox="0 0 396 248" data-background-color="#ffffff" preserveAspectRatio="xMidYMid meet" height="1252" width="2000" xmlns="http://www.w3.org/2000/svg" xmlns:xlink="http://www.w3.org/1999/xlink"><g id="tight-bounds" transform="matrix(1,0,0,1,0.2400000000000091,0.4000000000000057)"><svg viewBox="0 0 395.52 247.2" height="247.2" width="395.52"><g><svg></svg></g><g><svg viewBox="0 0 395.52 247.2" height="247.2" width="395.52"><g transform="matrix(1,0,0,1,75.54432,66.49794385604113)"><svg viewBox="0 0 244.43135999999998 114.20411228791772" height="114.20411228791772" width="244.43135999999998"><g><svg viewBox="0 0 244.43135999999998 114.20411228791772" height="114.20411228791772" width="244.43135999999998"><g><svg viewBox="0 0 244.43135999999998 114.20411228791772" height="114.20411228791772" width="244.43135999999998"><g><svg viewBox="0 0 244.43135999999998 114.20411228791772" height="114.20411228791772" width="244.43135999999998"><g id="textblocktransform"><svg viewBox="0 0 244.43135999999998 114.20411228791772" height="114.20411228791772" width="244.43135999999998" id="textblock"><g><svg viewBox="0 0 244.43135999999998 114.20411228791772" height="114.20411228791772" width="244.43135999999998"><g transform="matrix(1,0,0,1,0,0)"><svg width="244.43135999999998" viewBox="3 -35.01 75.98 35.5" height="114.20411228791772" data-palette-color="#2a2c35"><path d="M37.99-35.01L37.99-10.01Q37.99-7.84 37.17-5.92 36.35-4 34.92-2.58 33.5-1.15 31.58-0.33 29.66 0.49 27.49 0.49L27.49 0.49Q25.54 0.49 23.74-0.2 21.95-0.88 20.51-2.2L20.51-2.2Q19.07-0.88 17.26-0.2 15.45 0.49 13.5 0.49L13.5 0.49Q11.33 0.49 9.41-0.33 7.5-1.15 6.07-2.58 4.64-4 3.82-5.92 3-7.84 3-10.01L3-10.01 3-35.01 10.01-35.01 10.01-10.01Q10.01-9.28 10.28-8.63 10.55-7.98 11.02-7.51 11.5-7.03 12.13-6.76 12.77-6.49 13.5-6.49L13.5-6.49Q14.23-6.49 14.87-6.76 15.5-7.03 15.98-7.51 16.46-7.98 16.72-8.63 16.99-9.28 16.99-10.01L16.99-10.01 16.99-35.01 24-35.01 24-10.01Q24-9.28 24.27-8.63 24.54-7.98 25.01-7.51 25.49-7.03 26.12-6.76 26.76-6.49 27.49-6.49L27.49-6.49Q28.22-6.49 28.86-6.76 29.49-7.03 29.97-7.51 30.44-7.98 30.73-8.63 31.01-9.28 31.01-10.01L31.01-10.01 31.01-35.01 37.99-35.01ZM78.98-35.01L78.98-10.01Q78.98-7.84 78.16-5.92 77.34-4 75.91-2.58 74.48-1.15 72.57-0.33 70.65 0.49 68.48 0.49L68.48 0.49Q66.53 0.49 64.73-0.2 62.94-0.88 61.5-2.2L61.5-2.2Q60.06-0.88 58.25-0.2 56.44 0.49 54.49 0.49L54.49 0.49Q52.32 0.49 50.4-0.33 48.48-1.15 47.06-2.58 45.63-4 44.81-5.92 43.99-7.84 43.99-10.01L43.99-10.01 43.99-35.01 51-35.01 51-10.01Q51-9.28 51.27-8.63 51.54-7.98 52.01-7.51 52.49-7.03 53.12-6.76 53.76-6.49 54.49-6.49L54.49-6.49Q55.22-6.49 55.86-6.76 56.49-7.03 56.97-7.51 57.44-7.98 57.71-8.63 57.98-9.28 57.98-10.01L57.98-10.01 57.98-35.01 64.99-35.01 64.99-10.01Q64.99-9.28 65.26-8.63 65.52-7.98 66-7.51 66.48-7.03 67.11-6.76 67.75-6.49 68.48-6.49L68.48-6.49Q69.21-6.49 69.85-6.76 70.48-7.03 70.96-7.51 71.43-7.98 71.71-8.63 71.99-9.28 71.99-10.01L71.99-10.01 71.99-35.01 78.98-35.01Z" opacity="1" transform="matrix(1,0,0,1,0,0)" fill="#ffffff" class="wordmark-text-0" data-fill-palette-color="primary" id="text-0"></path></svg></g></svg></g></svg></g></svg></g></svg></g></svg></g></svg></g><path d="M235.536 60.498L235.536 11.552 11.439 11.552 11.439 235.648 235.536 235.648 235.536 186.702 225.237 186.702 225.237 225.349 21.738 225.349 21.738 21.851 225.237 21.851 225.237 60.498Z" fill="#ffffff" stroke="transparent" data-fill-palette-color="tertiary"></path></svg></g><defs></defs></svg><rect width="395.52" height="247.2" fill="none" stroke="none" visibility="hidden"></rect></g></svg></g></svg>